<?xml version="1.0" encoding="UTF-8"?>
<svg width="87.527mm" height="13.039mm" version="1.1" viewBox="0 0 87.527 13.039" xmlns="http://www.w3.org/2000/svg" xmlns:cc="http://creativecommons.org/ns#" xmlns:dc="http://purl.org/dc/elements/1.1/" xmlns:rdf="http://www.w3.org/1999/02/22-rdf-syntax-ns#">
 <metadata>
  <rdf:RDF>
   <cc:Work rdf:about="">
    <dc:format>image/svg+xml</dc:format>
    <dc:type rdf:resource="http://purl.org/dc/dcmitype/StillImage"/>
    <dc:title/>
   </cc:Work>
  </rdf:RDF>
 </metadata>
 <g transform="translate(-34.974 -90.317)">
  <g stroke-width=".26458" style="font-variant-caps:normal;font-variant-east-asian:normal;font-variant-ligatures:normal;font-variant-numeric:normal" aria-label="fischerDREI">
   <path d="m36.272 103.19v-7.0114h-1.2981v-1.9348h1.2981v-0.29766q0.02481-1.7859 1.1741-2.7368 1.0914-0.89297 3.051-0.89297 1.232 0 2.9104 0.47956l-0.38034 2.1993-0.46302-0.12402q-0.90124-0.23978-1.9017-0.23978-1.5958 0-1.5958 1.4552v0.1571h1.7529v1.9348h-1.7529v7.0114zm8.417 0h-2.8029v-8.9462h2.8029z" style="font-variant-caps:normal;font-variant-east-asian:normal;font-variant-ligatures:normal;font-variant-numeric:normal"/>
   <path d="m51.072 100.68q0-0.35554-0.37207-0.57051-0.37207-0.21497-1.4139-0.44648t-1.7198-0.60358q-0.67799-0.38034-1.0335-0.91777t-0.35553-1.232q0-1.232 1.017-2.0257 1.017-0.80202 2.6624-0.80202 1.7694 0 2.8443 0.80202 1.0749 0.80202 1.0749 2.1084h-2.7947q0-1.0749-1.1327-1.0749-0.43822 0-0.73587 0.24805-0.29766 0.23978-0.29766 0.60358 0 0.37207 0.3638 0.60358 0.3638 0.23151 1.1576 0.38034 0.80202 0.14883 1.4056 0.35553 2.0174 0.69453 2.0174 2.4887 0 1.2237-1.0914 1.9926-1.0831 0.76895-2.8112 0.76895-1.1493 0-2.0505-0.41341t-1.4056-1.1245-0.50436-1.4966h2.6045q0.01654 0.62012 0.41341 0.90951 0.39687 0.28112 1.017 0.28112 0.57051 0 0.85163-0.23151 0.28939-0.23151 0.28939-0.60358z" style="font-variant-caps:normal;font-variant-east-asian:normal;font-variant-ligatures:normal;font-variant-numeric:normal"/>
   <path d="m58.844 101.21q0.58704 0 0.9095-0.31419 0.32246-0.32246 0.31419-0.89297h2.6128q0 1.4717-1.0583 2.4143-1.0501 0.94258-2.712 0.94258-1.9513 0-3.0758-1.2237-1.1245-1.2237-1.1245-3.39v-0.11576q0-1.356 0.49609-2.3895 0.50436-1.0418 1.4469-1.5958 0.94258-0.56224 2.2324-0.56224 1.7446 0 2.7699 0.96738 1.0253 0.96738 1.0253 2.621h-2.6128q0-0.69453-0.339-1.0666t-0.9095-0.37207q-1.0831 0-1.265 1.3808-0.05788 0.43822-0.05788 1.2072 0 1.3477 0.32246 1.8686 0.32246 0.52089 1.0253 0.52089z" style="font-variant-caps:normal;font-variant-east-asian:normal;font-variant-ligatures:normal;font-variant-numeric:normal"/>
   <path d="m66.583 95.204q0.89297-1.1245 2.282-1.1245 1.48 0 2.2324 0.87643 0.75241 0.87643 0.76894 2.588v5.6472h-2.7947v-5.581q0-0.71107-0.28939-1.0418-0.28939-0.339-0.98392-0.339-0.85989 0-1.2154 0.5457v6.4161h-2.7864v-12.7h2.7864z" style="font-variant-caps:normal;font-variant-east-asian:normal;font-variant-ligatures:normal;font-variant-numeric:normal"/>
   <path d="m77.745 103.36q-2.0588 0-3.3321-1.2237-1.2733-1.232-1.2733-3.1998v-0.23151q0-1.3725 0.50436-2.4226 0.51263-1.0501 1.4883-1.6206 0.97565-0.57878 2.3151-0.57878 1.8852 0 2.9766 1.1741 1.0914 1.1658 1.0914 3.2577v1.0831h-5.5397q0.14883 0.75241 0.65319 1.1824 0.50436 0.42994 1.3064 0.42994 1.3229 0 2.0671-0.92604l1.2733 1.5048q-0.5209 0.71933-1.48 1.1493-0.95084 0.42168-2.0505 0.42168zm-0.31419-7.1272q-1.2237 0-1.4552 1.6206h2.8112v-0.21497q0.01654-0.66973-0.339-1.0335-0.35553-0.37207-1.017-0.37207z" style="font-variant-caps:normal;font-variant-east-asian:normal;font-variant-ligatures:normal;font-variant-numeric:normal"/>
   <path d="m88.048 96.767-0.91777-0.06614q-1.3146 0-1.6867 0.82682v5.6637h-2.7864v-8.9462h2.6128l0.09095 1.1493q0.7028-1.3146 1.9596-1.3146 0.44648 0 0.77721 0.09922z" style="font-variant-caps:normal;font-variant-east-asian:normal;font-variant-ligatures:normal;font-variant-numeric:normal"/>
   <path d="m89.792 103.19v-12.039h3.3652q1.48 0 2.6541 0.67799 1.1741 0.66972 1.8273 1.9265 0.66146 1.2568 0.66146 2.8608v1.1079q0 1.6123-0.65319 2.8608-0.65319 1.2485-1.8438 1.9265-1.1824 0.67799-2.7202 0.67799zm1.017-11.17v10.31h2.282q1.9017 0 3.051-1.2568 1.1493-1.265 1.1493-3.4148v-1.0583q0-2.0753-1.1327-3.3238-1.1327-1.2485-2.9848-1.2568z" stroke-width=".26458" style="font-variant-caps:normal;font-variant-east-asian:normal;font-variant-ligatures:normal;font-variant-numeric:normal"/>
   <path d="m105.38 98.18h-3.4974v5.0105h-1.0253v-12.039h3.9109q1.9265 0 3.0096 0.93431 1.0831 0.93431 1.0831 2.6128 0 1.1576-0.678 2.0422-0.67799 0.8847-1.819 1.2237l3.0096 5.118v0.10748h-1.0831zm-3.4974-0.86816h3.1171q1.2816 0 2.0588-0.7276 0.77721-0.7276 0.77721-1.8852 0-1.2733-0.81029-1.9761-0.81028-0.7028-2.2738-0.7028h-2.8691z" stroke-width=".26458" style="font-variant-caps:normal;font-variant-east-asian:normal;font-variant-ligatures:normal;font-variant-numeric:normal"/>
   <path d="m118.28 97.42h-5.6307v4.9113h6.474v0.85989h-7.491v-12.039h7.4497v0.86816h-6.4327v4.5392h5.6307z" stroke-width=".26458" style="font-variant-caps:normal;font-variant-east-asian:normal;font-variant-ligatures:normal;font-variant-numeric:normal"/>
   <path d="m122.5 103.19h-1.017v-12.039h1.017z" stroke-width=".26458" style="font-variant-caps:normal;font-variant-east-asian:normal;font-variant-ligatures:normal;font-variant-numeric:normal"/>
  </g>
 </g>
</svg>
