<svg
   width="87.527306mm"
   height="13.038972mm"
   viewBox="0 0 87.527306 13.038972">
   <g
     inkscape:label="Layer 1"
     inkscape:groupmode="layer"
     id="layer1"
     transform="translate(-34.973932,-90.317356)">
    <g
       aria-label="fischerDREI"
       id="f3logo"
       >
      <path
         d="m 36.272041,103.19096 v -7.011441 h -1.298109 v -1.934762 h 1.298109 v -0.297655 q 0.02481,-1.785934 1.174087,-2.736779 1.091404,-0.892967 3.05097,-0.892967 1.231964,0 2.910411,0.479557 l -0.380338,2.199344 -0.46302,-0.124023 q -0.901235,-0.239778 -1.901689,-0.239778 -1.595765,0 -1.595765,1.455205 v 0.157096 h 1.752861 v 1.934762 h -1.752861 v 7.011441 z m 8.417041,0 h -2.802924 v -8.946203 h 2.802924 z"
         style="font-style:normal;font-variant:normal;font-weight:900;font-stretch:normal;font-size:16.9333px;font-family:Roboto;-inkscape-font-specification:'Roboto, Heavy';font-variant-ligatures:normal;font-variant-caps:normal;font-variant-numeric:normal;font-variant-east-asian:normal"
         id="path94" />
      <path
         d="m 51.072142,100.67743 q 0,-0.35554 -0.372069,-0.57051 -0.37207,-0.214973 -1.413865,-0.446483 -1.041795,-0.23151 -1.719788,-0.60358 -0.677994,-0.380337 -1.033527,-0.917771 -0.355533,-0.537434 -0.355533,-1.231964 0,-1.231964 1.01699,-2.025712 1.016991,-0.802017 2.662365,-0.802017 1.769397,0 2.844265,0.802017 1.074868,0.802016 1.074868,2.108394 h -2.794656 q 0,-1.074868 -1.132745,-1.074868 -0.438216,0 -0.735871,0.248047 -0.297656,0.239778 -0.297656,0.603579 0,0.37207 0.363801,0.60358 0.363802,0.23151 1.15755,0.380338 0.802017,0.148827 1.405596,0.355533 2.017444,0.69453 2.017444,2.488727 0,1.2237 -1.091404,1.99264 -1.083136,0.76895 -2.811192,0.76895 -1.149282,0 -2.050517,-0.41341 -0.901235,-0.41341 -1.405596,-1.12448 -0.504361,-0.71107 -0.504361,-1.49655 h 2.604487 q 0.01654,0.62012 0.413411,0.90951 0.396874,0.28112 1.01699,0.28112 0.570507,0 0.851626,-0.23151 0.289387,-0.23151 0.289387,-0.60358 z"
         style="font-style:normal;font-variant:normal;font-weight:900;font-stretch:normal;font-size:16.9333px;font-family:Roboto;-inkscape-font-specification:'Roboto, Heavy';font-variant-ligatures:normal;font-variant-caps:normal;font-variant-numeric:normal;font-variant-east-asian:normal"
         id="path96" />
      <path
         d="m 58.844262,101.20659 q 0.587043,0 0.909504,-0.31419 0.32246,-0.32246 0.314192,-0.892966 h 2.612755 q 0,1.471746 -1.058331,2.414316 -1.050063,0.94258 -2.711974,0.94258 -1.951298,0 -3.075775,-1.2237 -1.124477,-1.22369 -1.124477,-3.389965 V 98.62691 q 0,-1.355987 0.496092,-2.389513 0.504361,-1.041795 1.446938,-1.595765 0.942576,-0.562239 2.232417,-0.562239 1.744593,0 2.769851,0.967381 1.025259,0.967381 1.025259,2.621024 h -2.612755 q 0,-0.69453 -0.338997,-1.0666 -0.338997,-0.37207 -0.909504,-0.37207 -1.083135,0 -1.265036,1.380792 -0.05788,0.438215 -0.05788,1.207159 0,1.347721 0.322461,1.868621 0.32246,0.52089 1.025258,0.52089 z"
         style="font-style:normal;font-variant:normal;font-weight:900;font-stretch:normal;font-size:16.9333px;font-family:Roboto;-inkscape-font-specification:'Roboto, Heavy';font-variant-ligatures:normal;font-variant-caps:normal;font-variant-numeric:normal;font-variant-east-asian:normal"
         id="path98" />
      <path
         d="m 66.583309,95.20387 q 0.892967,-1.124477 2.282027,-1.124477 1.48001,0 2.232418,0.876431 0.752407,0.87643 0.768943,2.58795 v 5.647186 h -2.794656 v -5.58104 q 0,-0.711066 -0.289387,-1.041795 -0.289387,-0.338997 -0.983917,-0.338997 -0.859894,0 -1.215428,0.545703 v 6.416129 H 63.796922 V 90.490989 h 2.786387 z"
         style="font-style:normal;font-variant:normal;font-weight:900;font-stretch:normal;font-size:16.9333px;font-family:Roboto;-inkscape-font-specification:'Roboto, Heavy';font-variant-ligatures:normal;font-variant-caps:normal;font-variant-numeric:normal;font-variant-east-asian:normal"
         id="path100" />
      <path
         d="m 77.745395,103.35633 q -2.058785,0 -3.33209,-1.2237 Q 73.14,100.90067 73.14,98.932834 v -0.23151 q 0,-1.372523 0.504361,-2.422586 0.512629,-1.050063 1.488278,-1.62057 0.97565,-0.578775 2.3151,-0.578775 1.885153,0 2.976557,1.174086 1.091404,1.165818 1.091404,3.257676 v 1.083136 h -5.539703 q 0.148828,0.752409 0.653189,1.182359 0.504361,0.42994 1.306378,0.42994 1.322914,0 2.067053,-0.92604 l 1.273305,1.50482 q -0.520898,0.71933 -1.48001,1.14928 -0.950845,0.42168 -2.050517,0.42168 z m -0.314192,-7.127202 q -1.223696,0 -1.455206,1.62057 h 2.811193 v -0.214973 q 0.01654,-0.669726 -0.338997,-1.033527 -0.355533,-0.37207 -1.01699,-0.37207 z"
         style="font-style:normal;font-variant:normal;font-weight:900;font-stretch:normal;font-size:16.9333px;font-family:Roboto;-inkscape-font-specification:'Roboto, Heavy';font-variant-ligatures:normal;font-variant-caps:normal;font-variant-numeric:normal;font-variant-east-asian:normal"
         id="path102" />
      <path
         d="m 88.04759,96.766562 -0.917772,-0.06614 q -1.314646,0 -1.686715,0.826821 v 5.663722 h -2.786388 v -8.946203 h 2.612755 l 0.09095,1.149282 q 0.702799,-1.314646 1.959567,-1.314646 0.446483,0 0.777212,0.09922 z"
         style="font-style:normal;font-variant:normal;font-weight:900;font-stretch:normal;font-size:16.9333px;font-family:Roboto;-inkscape-font-specification:'Roboto, Heavy';font-variant-ligatures:normal;font-variant-caps:normal;font-variant-numeric:normal;font-variant-east-asian:normal"
         id="path104" />
      <path
         d="M 89.792183,103.19096 V 91.152446 h 3.365163 q 1.48001,0 2.654096,0.677993 1.174086,0.669725 1.827275,1.926494 0.661457,1.256768 0.661457,2.860801 v 1.107941 q 0,1.612302 -0.653189,2.860805 -0.653188,1.2485 -1.843811,1.92649 -1.182354,0.67799 -2.720242,0.67799 z m 1.01699,-11.170352 V 102.33107 H 93.0912 q 1.901689,0 3.050971,-1.25677 1.149281,-1.265035 1.149281,-3.414771 v -1.058331 q 0,-2.075321 -1.132745,-3.323822 -1.132745,-1.2485 -2.984825,-1.256768 z"
         style="font-style:normal;font-variant:normal;font-weight:300;font-stretch:normal;font-size:16.9333px;font-family:Roboto;-inkscape-font-specification:'Roboto, Light';font-variant-ligatures:normal;font-variant-caps:normal;font-variant-numeric:normal;font-variant-east-asian:normal;stroke-width:0.264583"
         id="path106" />
      <path
         d="m 105.37776,98.180427 h -3.49745 v 5.010533 h -1.02526 V 91.152446 h 3.91086 q 1.9265,0 3.00963,0.934308 1.08314,0.934308 1.08314,2.612755 0,1.15755 -0.678,2.042249 -0.67799,0.884698 -1.819,1.223695 l 3.00963,5.118027 v 0.10748 h -1.08314 z m -3.49745,-0.868163 h 3.11711 q 1.28158,0 2.05879,-0.727602 0.77721,-0.727603 0.77721,-1.885153 0,-1.273305 -0.81029,-1.976103 -0.81028,-0.702798 -2.27375,-0.702798 h -2.86907 z"
         style="font-style:normal;font-variant:normal;font-weight:300;font-stretch:normal;font-size:16.9333px;font-family:Roboto;-inkscape-font-specification:'Roboto, Light';font-variant-ligatures:normal;font-variant-caps:normal;font-variant-numeric:normal;font-variant-east-asian:normal;stroke-width:0.264583"
         id="path108" />
      <path
         d="m 118.27618,97.419751 h -5.63066 v 4.911319 h 6.47401 v 0.85989 h -7.491 V 91.152446 h 7.44966 v 0.868162 h -6.43267 v 4.539249 h 5.63066 z"
         style="font-style:normal;font-variant:normal;font-weight:300;font-stretch:normal;font-size:16.9333px;font-family:Roboto;-inkscape-font-specification:'Roboto, Light';font-variant-ligatures:normal;font-variant-caps:normal;font-variant-numeric:normal;font-variant-east-asian:normal;stroke-width:0.264583"
         id="path110" />
      <path
         d="m 122.50123,103.19096 h -1.01699 V 91.152446 h 1.01699 z"
         style="font-style:normal;font-variant:normal;font-weight:300;font-stretch:normal;font-size:16.9333px;font-family:Roboto;-inkscape-font-specification:'Roboto, Light';font-variant-ligatures:normal;font-variant-caps:normal;font-variant-numeric:normal;font-variant-east-asian:normal;stroke-width:0.264583"
         id="path112" />
    </g>
  </g>
</svg>
